<svg id="svg2" xmlns="http://www.w3.org/2000/svg" viewBox="0 0 86.92 76.46"><path id="path2842" d="M60.91,72.6V48.87q0-8.26-3.43-13.63-4.12-6.32-8.79-6.41a4.44,4.44,0,0,0-1.14.17q-4.75,1-8.7,7-2.91,3-3.52,10L35.24,72.6c0,2.58-.82,3.86-2.46,3.86s-2.46-1.28-2.46-3.86V48.87a30.94,30.94,0,0,0-3.16-13.63q-4.05-6.32-8.7-6.41a4.51,4.51,0,0,0-1.15.17q-4.74,1-8.43,6.86A28.1,28.1,0,0,0,5.1,44.47V72.6q0,3.78-2.73,3.86C.79,76.46,0,75.18,0,72.6V26.1c0-2.22.79-3.34,2.37-3.34,1.82,0,2.73,1.12,2.73,3.34v5.36q-.88,1.77,1.4-1.67,6.24-6.67,12-6.76l1.94.26a16.84,16.84,0,0,1,9.05,6.15,14.14,14.14,0,0,1,3.25,5.45c.3-1,1.73-3,4.31-5.71Q43,23.12,48.78,23l1.93.26a19.23,19.23,0,0,1,9.93,7.21q5.19,5.45,5.19,20.83V72.6q0,3.69-2.46,3.86Q61,76.29,60.91,72.6ZM69,5.36A6.62,6.62,0,0,1,66.71,6q-1.5,0-1.5-1.41a4.73,4.73,0,0,1,.36-1.41A19.9,19.9,0,0,1,73,.09L74.27,0h.09a11.88,11.88,0,0,1,7.38,2.64A7.76,7.76,0,0,1,85,9.14a11.69,11.69,0,0,1-.26,2.37,13.66,13.66,0,0,1-1.5,3.26c-1.64,2.05-2.52,3.1-2.63,3.16H77.26q9.66,1.76,9.66,8.7a10.1,10.1,0,0,1-.17,1.85l-.18.79c-.17.52-.35,1-.53,1.4a14.78,14.78,0,0,1-6.15,6.16A13.54,13.54,0,0,1,74,38.32a12.43,12.43,0,0,1-2.54-.26l-1.32-.53a11.38,11.38,0,0,1-5.72-5.63,12.91,12.91,0,0,1-1.23-3c.24-1.18.77-1.76,1.59-1.76a2.89,2.89,0,0,1,1.4.44,11.4,11.4,0,0,1,1.5,3.07q1.75,3.16,3.6,3.61V34.1a7.73,7.73,0,0,0,1.85.62,7.25,7.25,0,0,0,1.49.17,8.78,8.78,0,0,0,4.66-1.49,10.27,10.27,0,0,0,4.22-5.8q0-5-8.27-6.24c-5.09-.18-7.64-.79-7.64-1.85a2.87,2.87,0,0,1,1-1.84,43.64,43.64,0,0,1,5.36-1q5.81-2.64,6.86-4.83a12.21,12.21,0,0,0,.53-3.26A3.36,3.36,0,0,0,80.33,6,8.15,8.15,0,0,0,75.06,3.6H73.39v.09A10.73,10.73,0,0,0,69,5.36Z"/></svg>